REM DIRINDEX 1\2,1\3,1\4,1\5
REM DIRNAME cjc044,folder01,folder02,folder03,folder04
TITLE ""
FILE "1800_159.mp3" MP3
  TRACK 01 AUDIO
    TITLE "2:cjc044_5136"
    INDEX 01 00:00:00
  TRACK 02 AUDIO
    TITLE "0:"
    INDEX 01 00:00:74
  TRACK 03 AUDIO
    TITLE "3:cjc044_5137"
    INDEX 01 00:01:44
  TRACK 04 AUDIO
    TITLE "0:"
    INDEX 01 00:02:51
  TRACK 05 AUDIO
    TITLE "4:cjc044_5138"
    INDEX 01 00:03:19
  TRACK 06 AUDIO
    TITLE "0:"
    INDEX 01 00:04:31
  TRACK 07 AUDIO
    TITLE "2:cjc044_5139"
    INDEX 01 00:06:06
  TRACK 08 AUDIO
    TITLE "0:"
    INDEX 01 00:07:41
  TRACK 09 AUDIO
    TITLE "3:cjc044_5140"
    INDEX 01 00:08:11
  TRACK 10 AUDIO
    TITLE "0:"
    INDEX 01 00:09:32
  TRACK 11 AUDIO
    TITLE "4:cjc044_5141"
    INDEX 01 00:10:04
  TRACK 12 AUDIO
    TITLE "0:"
    INDEX 01 00:11:37
  TRACK 13 AUDIO
    TITLE "2:cjc044_5142"
    INDEX 01 00:13:14
  TRACK 14 AUDIO
    TITLE "0:"
    INDEX 01 00:14:27
  TRACK 15 AUDIO
    TITLE "3:cjc044_5143"
    INDEX 01 00:14:72
  TRACK 16 AUDIO
    TITLE "0:"
    INDEX 01 00:16:02
  TRACK 17 AUDIO
    TITLE "4:cjc044_5144"
    INDEX 01 00:16:48
  TRACK 18 AUDIO
    TITLE "0:"
    INDEX 01 00:17:59
  TRACK 19 AUDIO
    TITLE "2:cjc044_5145"
    INDEX 01 00:19:32
  TRACK 20 AUDIO
    TITLE "0:"
    INDEX 01 00:20:55
  TRACK 21 AUDIO
    TITLE "3:cjc044_5146"
    INDEX 01 00:21:27
  TRACK 22 AUDIO
    TITLE "0:"
    INDEX 01 00:22:54
  TRACK 23 AUDIO
    TITLE "4:cjc044_5147"
    INDEX 01 00:23:28
  TRACK 24 AUDIO
    TITLE "0:"
    INDEX 01 00:24:51
  TRACK 25 AUDIO
    TITLE "2:cjc044_5148"
    INDEX 01 00:26:26
  TRACK 26 AUDIO
    TITLE "0:"
    INDEX 01 00:27:49
  TRACK 27 AUDIO
    TITLE "3:cjc044_5149"
    INDEX 01 00:28:23
  TRACK 28 AUDIO
    TITLE "0:"
    INDEX 01 00:29:33
  TRACK 29 AUDIO
    TITLE "4:cjc044_5150"
    INDEX 01 00:30:03
  TRACK 30 AUDIO
    TITLE "0:"
    INDEX 01 00:31:29
  TRACK 31 AUDIO
    TITLE "2:cjc044_5151"
    INDEX 01 00:33:07
  TRACK 32 AUDIO
    TITLE "0:"
    INDEX 01 00:34:20
  TRACK 33 AUDIO
    TITLE "3:cjc044_5152"
    INDEX 01 00:34:67
  TRACK 34 AUDIO
    TITLE "0:"
    INDEX 01 00:36:15
  TRACK 35 AUDIO
    TITLE "4:cjc044_5153"
    INDEX 01 00:36:64
  TRACK 36 AUDIO
    TITLE "0:"
    INDEX 01 00:38:02
  TRACK 37 AUDIO
    TITLE "2:cjc044_5154"
    INDEX 01 00:39:51
  TRACK 38 AUDIO
    TITLE "0:"
    INDEX 01 00:40:64
  TRACK 39 AUDIO
    TITLE "3:cjc044_5155"
    INDEX 01 00:41:36
  TRACK 40 AUDIO
    TITLE "0:"
    INDEX 01 00:42:37
  TRACK 41 AUDIO
    TITLE "4:cjc044_5156"
    INDEX 01 00:43:07
  TRACK 42 AUDIO
    TITLE "0:"
    INDEX 01 00:44:24
  TRACK 43 AUDIO
    TITLE "2:cjc044_5157"
    INDEX 01 00:45:71
  TRACK 44 AUDIO
    TITLE "0:"
    INDEX 01 00:47:11
  TRACK 45 AUDIO
    TITLE "3:cjc044_5158"
    INDEX 01 00:47:58
  TRACK 46 AUDIO
    TITLE "0:"
    INDEX 01 00:48:73
  TRACK 47 AUDIO
    TITLE "4:cjc044_5159"
    INDEX 01 00:49:43
  TRACK 48 AUDIO
    TITLE "0:"
    INDEX 01 00:50:58
  TRACK 49 AUDIO
    TITLE "2:cjc044_5160"
    INDEX 01 00:52:32
  TRACK 50 AUDIO
    TITLE "0:"
    INDEX 01 00:53:45
  TRACK 51 AUDIO
    TITLE "3:cjc044_5161"
    INDEX 01 00:54:17
  TRACK 52 AUDIO
    TITLE "0:"
    INDEX 01 00:55:36
  TRACK 53 AUDIO
    TITLE "4:cjc044_5162"
    INDEX 01 00:56:10
  TRACK 54 AUDIO
    TITLE "0:"
    INDEX 01 00:57:23
  TRACK 55 AUDIO
    TITLE "2:cjc044_5163"
    INDEX 01 00:58:71
  TRACK 56 AUDIO
    TITLE "0:"
    INDEX 01 01:00:33
  TRACK 57 AUDIO
    TITLE "3:cjc044_5164"
    INDEX 01 01:01:07
  TRACK 58 AUDIO
    TITLE "0:"
    INDEX 01 01:02:14
  TRACK 59 AUDIO
    TITLE "4:cjc044_5165"
    INDEX 01 01:02:61
  TRACK 60 AUDIO
    TITLE "0:"
    INDEX 01 01:04:25
  TRACK 61 AUDIO
    TITLE "2:cjc044_5166"
    INDEX 01 01:05:73
  TRACK 62 AUDIO
    TITLE "0:"
    INDEX 01 01:07:14
  TRACK 63 AUDIO
    TITLE "3:cjc044_5167"
    INDEX 01 01:07:59
  TRACK 64 AUDIO
    TITLE "0:"
    INDEX 01 01:09:12
  TRACK 65 AUDIO
    TITLE "4:cjc044_5168"
    INDEX 01 01:09:59
  TRACK 66 AUDIO
    TITLE "0:"
    INDEX 01 01:10:71
  TRACK 67 AUDIO
    TITLE "2:cjc044_5169"
    INDEX 01 01:12:44
  TRACK 68 AUDIO
    TITLE "0:"
    INDEX 01 01:13:55
  TRACK 69 AUDIO
    TITLE "3:cjc044_5170"
    INDEX 01 01:14:29
  TRACK 70 AUDIO
    TITLE "0:"
    INDEX 01 01:15:33
  TRACK 71 AUDIO
    TITLE "4:cjc044_5171"
    INDEX 01 01:16:07
  TRACK 72 AUDIO
    TITLE "0:"
    INDEX 01 01:17:16
  TRACK 73 AUDIO
    TITLE "2:cjc044_5172"
    INDEX 01 01:18:64
  TRACK 74 AUDIO
    TITLE "0:"
    INDEX 01 01:20:00
  TRACK 75 AUDIO
    TITLE "3:cjc044_5173"
    INDEX 01 01:20:48
  TRACK 76 AUDIO
    TITLE "0:"
    INDEX 01 01:21:37
  TRACK 77 AUDIO
    TITLE "4:cjc044_5174"
    INDEX 01 01:22:11
  TRACK 78 AUDIO
    TITLE "0:"
    INDEX 01 01:23:22
  TRACK 79 AUDIO
    TITLE "2:cjc044_5175"
    INDEX 01 01:24:73
  TRACK 80 AUDIO
    TITLE "0:"
    INDEX 01 01:26:23
  TRACK 81 AUDIO
    TITLE "3:cjc044_5176"
    INDEX 01 01:27:01
  TRACK 82 AUDIO
    TITLE "0:"
    INDEX 01 01:28:20
  TRACK 83 AUDIO
    TITLE "4:cjc044_5177"
    INDEX 01 01:28:71
  TRACK 84 AUDIO
    TITLE "0:"
    INDEX 01 01:30:26
  TRACK 85 AUDIO
    TITLE "2:cjc044_5178"
    INDEX 01 01:32:00
  TRACK 86 AUDIO
    TITLE "0:"
    INDEX 01 01:33:23
  TRACK 87 AUDIO
    TITLE "3:cjc044_5179"
    INDEX 01 01:33:72
  TRACK 88 AUDIO
    TITLE "0:"
    INDEX 01 01:35:14
  TRACK 89 AUDIO
    TITLE "4:cjc044_5180"
    INDEX 01 01:35:59
  TRACK 90 AUDIO
    TITLE "0:"
    INDEX 01 01:37:11
  TRACK 91 AUDIO
    TITLE "2:cjc044_5181"
    INDEX 01 01:38:57
  TRACK 92 AUDIO
    TITLE "0:"
    INDEX 01 01:39:66
  TRACK 93 AUDIO
    TITLE "3:cjc044_5182"
    INDEX 01 01:40:36
  TRACK 94 AUDIO
    TITLE "0:"
    INDEX 01 01:43:09
  TRACK 95 AUDIO
    TITLE "4:cjc044_5183"
    INDEX 01 01:43:56
  TRACK 96 AUDIO
    TITLE "0:"
    INDEX 01 01:44:64
